<svg width="628" height="628" viewBox="0 0 628 628" fill="none" xmlns="http://www.w3.org/2000/svg">
<rect width="628" height="628" fill="white"/>
<path d="M386.684 32.5625C270.128 118.232 258.094 228.295 258.094 228.295C258.85 244.404 274.934 282.661 274.934 282.661C264.052 274.029 254.445 242.707 254.445 242.707C253.419 348.971 276.117 393.02 327.144 447.583C296.134 428.891 280.637 404.656 281.001 405.074C272.806 438.097 239.915 471.686 240.749 473.227C286.175 510.31 296.84 573.596 299.353 596.015V472.777C298.911 472.739 298.469 472.684 298.032 472.6C297.595 472.521 297.162 472.418 296.735 472.296C296.307 472.171 295.886 472.026 295.473 471.859C295.062 471.693 294.66 471.508 294.268 471.304C293.873 471.097 293.488 470.872 293.117 470.628C292.745 470.385 292.388 470.122 292.042 469.843C291.698 469.563 291.368 469.268 291.053 468.956C290.738 468.643 290.439 468.314 290.156 467.971C289.874 467.629 289.611 467.272 289.365 466.904C289.118 466.536 288.89 466.154 288.681 465.764C288.473 465.373 288.282 464.973 288.113 464.564C287.946 464.154 287.8 463.735 287.674 463.311C287.548 462.887 287.443 462.458 287.36 462.024C287.277 461.588 287.216 461.149 287.178 460.707C287.143 460.325 287.127 459.942 287.126 459.559C287.126 459.116 287.146 458.674 287.191 458.234C287.235 457.793 287.302 457.353 287.391 456.919C287.48 456.486 287.591 456.059 287.723 455.638C287.854 455.214 288.007 454.798 288.18 454.389C288.353 453.982 288.546 453.585 288.758 453.197C288.972 452.809 289.204 452.429 289.455 452.064C289.705 451.699 289.975 451.347 290.262 451.008C290.548 450.67 290.852 450.345 291.171 450.036C296.62 444.872 304.75 445.325 310.028 450.315C310.337 450.632 310.633 450.964 310.909 451.31C311.185 451.657 311.442 452.017 311.682 452.389C311.924 452.761 312.145 453.144 312.348 453.538C312.55 453.933 312.732 454.339 312.893 454.753C313.053 455.164 313.194 455.583 313.311 456.008C313.43 456.435 313.526 456.868 313.602 457.305C313.677 457.741 313.733 458.18 313.764 458.622C313.789 458.935 313.799 459.25 313.799 459.564C313.798 460.007 313.774 460.448 313.729 460.889C313.685 461.328 313.622 461.765 313.534 462.198C313.445 462.632 313.334 463.061 313.202 463.485C313.07 463.908 312.917 464.324 312.742 464.733C312.569 465.14 312.374 465.537 312.162 465.925C311.948 466.313 311.716 466.69 311.465 467.055C311.213 467.421 310.943 467.775 310.656 468.114C310.369 468.451 310.065 468.771 309.746 469.078C309.427 469.387 309.092 469.681 308.744 469.956C308.396 470.231 308.034 470.487 307.66 470.726C307.285 470.965 306.897 471.185 306.501 471.385C306.105 471.586 305.701 471.767 305.288 471.928C304.873 472.089 304.45 472.228 304.021 472.347C303.593 472.464 303.16 472.558 302.723 472.634C302.342 472.697 301.957 472.748 301.572 472.782V596.018C304.085 573.598 314.75 510.315 360.176 473.232C285.98 384.62 271.391 276.142 315.9 169.232C280.821 289.36 316.632 374.333 317.281 375.409C346.882 341.052 345.85 323.923 345.85 323.923C336.638 337.366 320.965 340.735 320.965 340.735C370.422 287.029 362.876 231.704 362.876 231.704C351.339 247.645 320.174 271.395 320.174 271.395C331.059 239.659 361.019 217.015 361.019 217.015C353.955 144.953 364.365 95.5954 386.685 32.5626L386.684 32.5625Z" fill="url(#paint0_linear_903_4)"/>
<defs>
<linearGradient id="paint0_linear_903_4" x1="297.114" y1="179.656" x2="297.114" y2="586.553" gradientUnits="userSpaceOnUse">
<stop stop-color="#4DC1E8"/>
<stop offset="0.348239" stop-color="#7578B6"/>
<stop offset="0.62069" stop-color="#E04498"/>
<stop offset="1" stop-color="#ED5F69"/>
</linearGradient>
</defs>
</svg>
